<svg xmlns:xlink="http://www.w3.org/1999/xlink" xmlns="http://www.w3.org/2000/svg" width="52" height="52" viewBox="0 0 52 52" fill="none"><path fill-rule="evenodd" clip-rule="evenodd" d="M30.8166 4.25172L38.4644 11.8999C38.6256 12.0611 38.7161 12.2796 38.716 12.5075V28.6633C38.716 29.1378 38.3312 29.5226 37.8567 29.5226C37.3822 29.5226 36.9974 29.1378 36.9974 28.6633V13.3669H31.9275C30.506 13.3669 29.3496 12.2104 29.3496 10.7889V5.7188H6.57792C6.10415 5.7188 5.71864 6.10424 5.71864 6.57811V45.4208C5.71864 45.8946 6.10407 46.2801 6.57792 46.2801H22.9925C23.467 46.2801 23.8518 46.6649 23.8518 47.1394C23.8518 47.6139 23.4671 47.9987 22.9925 47.9987H6.57792C5.15645 47.9987 4 46.8422 4 45.4207V6.57811C4 5.15658 5.15645 4 6.57792 4H30.209C30.4369 4 30.6554 4.09058 30.8166 4.25172ZM31.0683 10.7889C31.0683 11.2627 31.4537 11.6482 31.9276 11.6482H35.7824L31.0683 6.93407V10.7889Z" fill="#0F62F9"></path><path d="M17.4344 28.0618H32.3578C32.8323 28.0618 33.2172 28.4466 33.2171 28.9211C33.2171 29.3957 32.8323 29.7804 32.3578 29.7804H17.4344C16.96 29.7804 16.5752 29.3956 16.5752 28.9211C16.5752 28.4466 16.9599 28.0618 17.4344 28.0618Z" fill="#0F62F9"></path><path d="M13.1589 28.0618H10.3589C9.88435 28.0618 9.49962 28.4466 9.49962 28.9211C9.49962 29.3956 9.88444 29.7804 10.3589 29.7804H13.1589C13.6334 29.7804 14.0181 29.3956 14.0181 28.9211C14.0181 28.4466 13.6334 28.0618 13.1589 28.0618Z" fill="#0F62F9"></path><path d="M17.4344 32.8742H25.9989C26.4735 32.8742 26.8582 33.259 26.8582 33.7335C26.8582 34.208 26.4735 34.5928 25.9989 34.5928H17.4344C16.96 34.5928 16.5752 34.2079 16.5752 33.7335C16.5752 33.259 16.9599 32.8742 17.4344 32.8742Z" fill="#0F62F9"></path><path d="M13.1589 32.8742H10.3589C9.88435 32.8742 9.49962 33.259 9.49962 33.7335C9.49962 34.2079 9.88444 34.5928 10.3589 34.5928H13.1589C13.6334 34.5928 14.0181 34.2079 14.0181 33.7335C14.0181 33.259 13.6334 32.8742 13.1589 32.8742Z" fill="#0F62F9"></path><path d="M17.4345 37.6865C17.6613 37.6865 17.8822 37.7785 18.042 37.9383C18.2027 38.0982 18.2939 38.3199 18.2939 38.5459C18.2939 38.7719 18.2027 38.9937 18.042 39.1534C17.8822 39.3134 17.6614 39.4053 17.4345 39.4053C17.2085 39.4053 16.9868 39.3133 16.8269 39.1534C16.667 38.9937 16.5752 38.7719 16.5752 38.5459C16.5752 38.3199 16.6671 38.0982 16.8269 37.9383C16.9876 37.7784 17.2085 37.6865 17.4345 37.6865Z" fill="#0F62F9"></path><path d="M13.1589 37.6865H10.3589C9.88435 37.6865 9.49962 38.0714 9.49962 38.5458C9.49962 39.0204 9.88444 39.4051 10.3589 39.4051H13.1589C13.6334 39.4051 14.0181 39.0203 14.0181 38.5458C14.0182 38.0714 13.6334 37.6865 13.1589 37.6865Z" fill="#0F62F9"></path><path fill-rule="evenodd" clip-rule="evenodd" d="M41.9292 37.3969C42.1721 37.3628 42.4199 37.344 42.6721 37.344C45.6099 37.344 48 39.734 48 42.672C48 45.6099 45.61 48 42.6722 48C39.8038 48 37.4589 45.7211 37.3497 42.8788L33.7891 46.4395C32.7506 47.478 31.386 47.9975 30.0219 47.9975C28.6574 47.9975 27.2934 47.4783 26.2546 46.4395C25.2483 45.4332 24.6941 44.0953 24.6941 42.6721C24.6941 41.2489 25.2483 39.911 26.2546 38.9046L33.06 32.0991C34.0662 31.0928 35.4041 30.5386 36.8272 30.5386C38.2503 30.5386 39.5882 31.0928 40.5945 32.0991C42.0259 33.5306 42.4707 35.5807 41.9292 37.3969ZM27.4698 45.2242C28.8769 46.6316 31.1666 46.6316 32.5737 45.2242L35.3688 42.4291L30.2649 37.3249L27.4698 40.1201C26.7881 40.8017 26.4127 41.7081 26.4127 42.6722C26.4127 43.6362 26.7881 44.5425 27.4698 45.2242ZM31.48 36.1095L36.584 41.2138L39.379 38.4186C40.7862 37.0114 40.7862 34.7216 39.379 33.3144C38.6975 32.6327 37.7911 32.2573 36.8271 32.2573C35.863 32.2573 34.9568 32.6327 34.2751 33.3144L31.48 36.1095ZM39.063 42.6721C39.063 44.366 40.2364 45.7905 41.8128 46.1772V39.167C40.2363 39.5536 39.063 40.978 39.063 42.6721ZM43.5314 39.1669V46.1772C45.1079 45.7905 46.2813 44.3659 46.2813 42.672C46.2813 40.978 45.1079 39.5536 43.5314 39.1669Z" fill="#0F62F9"></path><path fill-rule="evenodd" clip-rule="evenodd" d="M30.8166 4.25172L38.4644 11.8999C38.6256 12.0611 38.7161 12.2796 38.716 12.5075V28.6633C38.716 29.1378 38.3312 29.5226 37.8567 29.5226C37.3822 29.5226 36.9974 29.1378 36.9974 28.6633V13.3669H31.9275C30.506 13.3669 29.3496 12.2104 29.3496 10.7889V5.7188H6.57792C6.10415 5.7188 5.71864 6.10424 5.71864 6.57811V45.4208C5.71864 45.8946 6.10407 46.2801 6.57792 46.2801H22.9925C23.467 46.2801 23.8518 46.6649 23.8518 47.1394C23.8518 47.6139 23.4671 47.9987 22.9925 47.9987H6.57792C5.15645 47.9987 4 46.8422 4 45.4207V6.57811C4 5.15658 5.15645 4 6.57792 4H30.209C30.4369 4 30.6554 4.09058 30.8166 4.25172ZM31.0683 10.7889C31.0683 11.2627 31.4537 11.6482 31.9276 11.6482H35.7824L31.0683 6.93407V10.7889Z" stroke="#0F62F9" stroke-width="0.5px" stroke-miterlimit="10" stroke-linecap="square" fill="none"></path><path d="M17.4344 28.0618H32.3578C32.8323 28.0618 33.2172 28.4466 33.2171 28.9211C33.2171 29.3957 32.8323 29.7804 32.3578 29.7804H17.4344C16.96 29.7804 16.5752 29.3956 16.5752 28.9211C16.5752 28.4466 16.9599 28.0618 17.4344 28.0618Z" stroke="#0F62F9" stroke-width="0.5px" stroke-miterlimit="10" stroke-linecap="square" fill="none"></path><path d="M13.1589 28.0618H10.3589C9.88435 28.0618 9.49962 28.4466 9.49962 28.9211C9.49962 29.3956 9.88444 29.7804 10.3589 29.7804H13.1589C13.6334 29.7804 14.0181 29.3956 14.0181 28.9211C14.0181 28.4466 13.6334 28.0618 13.1589 28.0618Z" stroke="#0F62F9" stroke-width="0.5px" stroke-miterlimit="10" stroke-linecap="square" fill="none"></path><path d="M17.4344 32.8742H25.9989C26.4735 32.8742 26.8582 33.259 26.8582 33.7335C26.8582 34.208 26.4735 34.5928 25.9989 34.5928H17.4344C16.96 34.5928 16.5752 34.2079 16.5752 33.7335C16.5752 33.259 16.9599 32.8742 17.4344 32.8742Z" stroke="#0F62F9" stroke-width="0.5px" stroke-miterlimit="10" stroke-linecap="square" fill="none"></path><path d="M13.1589 32.8742H10.3589C9.88435 32.8742 9.49962 33.259 9.49962 33.7335C9.49962 34.2079 9.88444 34.5928 10.3589 34.5928H13.1589C13.6334 34.5928 14.0181 34.2079 14.0181 33.7335C14.0181 33.259 13.6334 32.8742 13.1589 32.8742Z" stroke="#0F62F9" stroke-width="0.5px" stroke-miterlimit="10" stroke-linecap="square" fill="none"></path><path d="M17.4345 37.6865C17.6613 37.6865 17.8822 37.7785 18.042 37.9383C18.2027 38.0982 18.2939 38.3199 18.2939 38.5459C18.2939 38.7719 18.2027 38.9937 18.042 39.1534C17.8822 39.3134 17.6614 39.4053 17.4345 39.4053C17.2085 39.4053 16.9868 39.3133 16.8269 39.1534C16.667 38.9937 16.5752 38.7719 16.5752 38.5459C16.5752 38.3199 16.6671 38.0982 16.8269 37.9383C16.9876 37.7784 17.2085 37.6865 17.4345 37.6865Z" stroke="#0F62F9" stroke-width="0.5px" stroke-miterlimit="10" stroke-linecap="square" fill="none"></path><path d="M13.1589 37.6865H10.3589C9.88435 37.6865 9.49962 38.0714 9.49962 38.5458C9.49962 39.0204 9.88444 39.4051 10.3589 39.4051H13.1589C13.6334 39.4051 14.0181 39.0203 14.0181 38.5458C14.0182 38.0714 13.6334 37.6865 13.1589 37.6865Z" stroke="#0F62F9" stroke-width="0.5px" stroke-miterlimit="10" stroke-linecap="square" fill="none"></path><path fill-rule="evenodd" clip-rule="evenodd" d="M41.9292 37.3969C42.1721 37.3628 42.4199 37.344 42.6721 37.344C45.6099 37.344 48 39.734 48 42.672C48 45.6099 45.61 48 42.6722 48C39.8038 48 37.4589 45.7211 37.3497 42.8788L33.7891 46.4395C32.7506 47.478 31.386 47.9975 30.0219 47.9975C28.6574 47.9975 27.2934 47.4783 26.2546 46.4395C25.2483 45.4332 24.6941 44.0953 24.6941 42.6721C24.6941 41.2489 25.2483 39.911 26.2546 38.9046L33.06 32.0991C34.0662 31.0928 35.4041 30.5386 36.8272 30.5386C38.2503 30.5386 39.5882 31.0928 40.5945 32.0991C42.0259 33.5306 42.4707 35.5807 41.9292 37.3969ZM27.4698 45.2242C28.8769 46.6316 31.1666 46.6316 32.5737 45.2242L35.3688 42.4291L30.2649 37.3249L27.4698 40.1201C26.7881 40.8017 26.4127 41.7081 26.4127 42.6722C26.4127 43.6362 26.7881 44.5425 27.4698 45.2242ZM31.48 36.1095L36.584 41.2138L39.379 38.4186C40.7862 37.0114 40.7862 34.7216 39.379 33.3144C38.6975 32.6327 37.7911 32.2573 36.8271 32.2573C35.863 32.2573 34.9568 32.6327 34.2751 33.3144L31.48 36.1095ZM39.063 42.6721C39.063 44.366 40.2364 45.7905 41.8128 46.1772V39.167C40.2363 39.5536 39.063 40.978 39.063 42.6721ZM43.5314 39.1669V46.1772C45.1079 45.7905 46.2813 44.3659 46.2813 42.672C46.2813 40.978 45.1079 39.5536 43.5314 39.1669Z" stroke="#0F62F9" stroke-width="0.5px" stroke-miterlimit="10" stroke-linecap="square" fill="none"></path><path fill-rule="evenodd" clip-rule="evenodd" d="M22.018 9.09448V10.4707C22.9874 10.5938 23.899 10.8637 24.4884 11.1876L25.3781 11.6767L24.4 13.4563L23.5102 12.9672C23.2089 12.8016 22.6538 12.626 22.018 12.5221V15.3695C22.5009 15.5424 23.0059 15.7513 23.4328 16.0264C24.1781 16.5067 24.7986 17.261 24.7986 18.4168C24.7986 19.3779 24.4759 20.1851 23.855 20.7721C23.3349 21.2638 22.6782 21.5324 22.018 21.6673V23.5693H19.9874V21.7523C18.983 21.6639 17.9665 21.4135 17.0996 21.1007L16.1445 20.756L16.8338 18.8459L17.7888 19.1905C18.4929 19.4446 19.263 19.6309 19.9874 19.7117V16.823C19.4279 16.6209 18.8244 16.3636 18.3203 15.9939C17.5617 15.4377 17.0048 14.6115 17.0048 13.4222C17.0048 12.4066 17.4519 11.624 18.1668 11.12C18.7084 10.7382 19.3582 10.5459 19.9874 10.4595V9.09448H22.018ZM19.9874 12.5203C19.7037 12.5832 19.4864 12.6743 19.3368 12.7798C19.1557 12.9074 19.0355 13.0739 19.0355 13.4222C19.0355 13.8659 19.199 14.1202 19.521 14.3563C19.6557 14.455 19.811 14.5445 19.9874 14.6296V12.5203ZM22.018 19.5612C22.2114 19.486 22.3563 19.3945 22.4601 19.2964C22.6225 19.1428 22.768 18.8965 22.768 18.4168C22.768 18.1317 22.6681 17.9494 22.3328 17.7334C22.2372 17.6717 22.1324 17.6143 22.018 17.5591V19.5612Z" fill="#5DAC46"></path></svg>