<svg xmlns:xlink="http://www.w3.org/1999/xlink" xmlns="http://www.w3.org/2000/svg" width="52" height="52" viewBox="0 0 52 52" fill="none"><path d="M47.4999 28.5581L46.2051 23.3159C46.5591 23.2398 46.8247 22.9219 46.8247 22.5411V21.6958C46.8247 19.8607 45.3496 18.3677 43.5366 18.3677H37.6389V16.6244C37.6389 15.7214 36.9132 14.9868 36.021 14.9868H25.0547L31.7188 12.2887C32.1203 12.1262 32.3155 11.665 32.1549 11.2586C31.9944 10.8524 31.539 10.6546 31.1373 10.8172L25.6808 13.0263C27.3435 11.9465 28.9885 10.7581 29.6148 9.92699C30.834 8.309 30.5253 5.98871 28.9267 4.75464C27.3282 3.52046 25.0358 3.83311 23.8165 5.4511C22.9257 6.63348 21.7503 9.95575 20.9896 12.2969C20.2288 9.95595 19.0535 6.63348 18.1626 5.4511C16.9435 3.83311 14.651 3.52066 13.0525 4.75464C11.4539 5.98862 11.1452 8.3089 12.3644 9.92699C12.9906 10.7582 14.6356 11.9465 16.2984 13.0263L10.8419 10.8172C10.4403 10.6544 9.98478 10.8523 9.82424 11.2586C9.66359 11.665 9.8589 12.1262 10.2604 12.2887L16.9244 14.9868H5.95821C5.06602 14.9868 4.34024 15.7214 4.34024 16.6244V30.9935C4.34024 31.4311 4.69073 31.7859 5.12315 31.7859C5.55548 31.7859 5.90606 31.4312 5.90606 30.9935V16.6244C5.90606 16.5953 5.9294 16.5716 5.95821 16.5716H36.0209C36.0497 16.5716 36.073 16.5953 36.073 16.6244V30.9937C36.073 31.4313 36.4235 31.7861 36.8559 31.7861C37.2883 31.7861 37.6388 31.4314 37.6388 30.9937V30.0954H46.8738C46.8747 30.0954 46.8754 30.0956 46.8763 30.0956C46.8771 30.0956 46.8779 30.0955 46.8788 30.0955C48.0151 30.0964 48.98 30.8513 49.3112 31.8916H46.8769C46.4445 31.8916 46.0939 32.2463 46.0939 32.684V34.3745C46.0939 35.7436 47.1943 36.8573 48.547 36.8573H49.4343V40.3439H47.3872C46.7147 38.3787 44.8689 36.9629 42.7015 36.9629C40.534 36.9629 38.6881 38.3786 38.0157 40.3439H37.6387V34.3744C37.6387 33.9368 37.2883 33.5819 36.8558 33.5819C36.4235 33.5819 36.0729 33.9367 36.0729 34.3744V40.3438H19.8298C19.1574 38.3786 17.3116 36.9628 15.1441 36.9628C12.9766 36.9628 11.1307 38.3785 10.4583 40.3438H5.95821C5.9294 40.3438 5.90606 40.3202 5.90606 40.291V38.5477H9.29855C9.73088 38.5477 10.0815 38.1929 10.0815 37.7552C10.0815 37.3176 9.73097 36.9628 9.29855 36.9628H1.78291C1.35059 36.9628 1 37.3176 1 37.7552C1 38.1929 1.35049 38.5477 1.78291 38.5477H4.34034V40.291C4.34034 41.1941 5.06612 41.9287 5.95831 41.9287H10.1872C10.187 41.9463 10.1859 41.9638 10.1859 41.9815C10.1859 44.7486 12.4102 47 15.1441 47C17.878 47 20.1023 44.7486 20.1023 41.9815C20.1023 41.9637 20.1011 41.9463 20.1009 41.9287H37.7445C37.7443 41.9463 37.7431 41.9638 37.7431 41.9815C37.7431 44.7486 39.9675 47 42.7014 47C45.4352 47 47.6596 44.7486 47.6596 41.9815C47.6596 41.9637 47.6584 41.9463 47.6582 41.9287H50.2171C50.6494 41.9287 51 41.5739 51 41.1362V32.6839C51.0001 30.5969 49.4789 28.863 47.4999 28.5581ZM17.8848 12.1619C14.7966 10.2195 13.8806 9.32581 13.6094 8.96582C12.9138 8.04271 13.09 6.71888 14.0021 6.01481C14.3781 5.7246 14.8212 5.58434 15.2612 5.58434C15.8883 5.58434 16.5088 5.86961 16.9177 6.41226C17.675 7.41732 18.8611 10.8001 19.6441 13.2377C19.1157 12.9228 18.5082 12.5542 17.8848 12.1619ZM22.3353 13.2376C23.1183 10.8001 24.3043 7.41742 25.0616 6.41217C25.7572 5.48905 27.0651 5.31084 27.9771 6.01481C28.8892 6.71888 29.0653 8.04271 28.3698 8.96582C28.0986 9.32571 27.1826 10.2195 24.0946 12.1618C23.4712 12.554 22.8638 12.9227 22.3353 13.2376ZM37.6389 19.9524H43.5366C44.4863 19.9524 45.259 20.7345 45.259 21.6957V21.7485H37.6389V19.9524ZM37.6389 28.5105V23.3334H44.5955L45.8742 28.5105H37.6389ZM15.1441 45.4152C13.2735 45.4152 11.7516 43.8748 11.7516 41.9815C11.7516 40.0881 13.2735 38.5477 15.1441 38.5477C17.0147 38.5477 18.5366 40.0881 18.5366 41.9815C18.5366 43.8748 17.0147 45.4152 15.1441 45.4152ZM42.7015 45.4152C40.8309 45.4152 39.3091 43.8748 39.3091 41.9815C39.3091 40.0881 40.8309 38.5477 42.7015 38.5477C44.5722 38.5477 46.094 40.0881 46.094 41.9815C46.094 43.8748 44.5722 45.4152 42.7015 45.4152ZM49.4344 35.2724H48.5471C48.0578 35.2724 47.6598 34.8695 47.6598 34.3743V33.4762H49.4343V35.2724H49.4344Z" fill="#0F62F9"></path><path d="M15.1434 40.3438C14.2512 40.3438 13.5254 41.0784 13.5254 41.9814C13.5254 42.8845 14.2512 43.6191 15.1434 43.6191C16.0356 43.6191 16.7613 42.8845 16.7613 41.9814C16.7613 41.0784 16.0356 40.3438 15.1434 40.3438Z" fill="#0F62F9"></path><path d="M42.702 40.3438C41.8098 40.3438 41.084 41.0784 41.084 41.9814C41.084 42.8845 41.8098 43.6191 42.702 43.6191C43.5941 43.6191 44.3199 42.8845 44.3199 41.9814C44.3199 41.0784 43.5941 40.3438 42.702 40.3438Z" fill="#0F62F9"></path><path d="M33.5159 36.9639H21.8249C21.3926 36.9639 21.042 37.3186 21.042 37.7563C21.042 38.194 21.3925 38.5487 21.8249 38.5487H33.5159C33.9483 38.5487 34.2989 38.194 34.2989 37.7563C34.2989 37.3186 33.9484 36.9639 33.5159 36.9639Z" fill="#0F62F9"></path><path d="M13.4738 33.5801H3.45283C3.02051 33.5801 2.66992 33.9348 2.66992 34.3725C2.66992 34.8102 3.02041 35.165 3.45283 35.165H13.4738C13.9061 35.165 14.2567 34.8102 14.2567 34.3725C14.2567 33.9348 13.9061 33.5801 13.4738 33.5801Z" fill="#0F62F9"></path><path d="M13.4738 21.749H10.1335C9.70117 21.749 9.35059 22.1038 9.35059 22.5415V29.3033C9.35059 29.7409 9.70107 30.0958 10.1335 30.0958C10.5659 30.0958 10.9164 29.741 10.9164 29.3033V26.7148H12.6388C13.0711 26.7148 13.4217 26.36 13.4217 25.9223C13.4217 25.4847 13.0712 25.1299 12.6388 25.1299H10.9164V23.3339H13.4738C13.9062 23.3339 14.2567 22.9791 14.2567 22.5415C14.2567 22.1039 13.9062 21.749 13.4738 21.749Z" fill="#5DAC46"></path><path d="M19.636 27.0863C20.4195 26.5669 20.9385 25.6712 20.9385 24.6546C20.9385 23.0524 19.6508 21.749 18.0679 21.749H15.9802C15.5479 21.749 15.1973 22.1038 15.1973 22.5415V29.3033C15.1973 29.7409 15.5478 30.0958 15.9802 30.0958C16.4126 30.0958 16.7631 29.741 16.7631 29.3033V27.56H18.0664L19.5041 29.7428C19.655 29.9718 19.9031 30.0958 20.1562 30.0958C20.3055 30.0958 20.4563 30.0527 20.5897 29.9625C20.9495 29.7199 21.0467 29.2278 20.8067 28.8638L19.636 27.0863ZM18.0679 25.9752H16.7631V23.3339H18.0679C18.7874 23.3339 19.3727 23.9263 19.3727 24.6546C19.3727 25.3829 18.7874 25.9752 18.0679 25.9752Z" fill="#5DAC46"></path><path d="M26.0002 28.511H23.4428V26.7122C23.4601 26.7134 23.4773 26.7149 23.4949 26.7149H25.165C25.5974 26.7149 25.948 26.3601 25.948 25.9224C25.948 25.4848 25.5975 25.13 25.165 25.13H23.4949C23.4772 25.13 23.4601 25.1315 23.4428 25.1327V23.3339H26.0002C26.4325 23.3339 26.7831 22.9791 26.7831 22.5415C26.7831 22.1039 26.4326 21.749 26.0002 21.749H22.6599C22.2275 21.749 21.877 22.1038 21.877 22.5415V29.3033C21.877 29.7409 22.2274 30.0958 22.6599 30.0958H26.0002C26.4325 30.0958 26.7831 29.741 26.7831 29.3033C26.7831 28.8656 26.4325 28.511 26.0002 28.511Z" fill="#5DAC46"></path><path d="M31.8459 28.511H29.2885V26.7149H30.1758C30.6081 26.7149 30.9587 26.3601 30.9587 25.9224C30.9587 25.4848 30.6082 25.13 30.1758 25.13H29.2885V23.3339H31.8459C32.2782 23.3339 32.6288 22.9791 32.6288 22.5415C32.6288 22.1039 32.2783 21.749 31.8459 21.749H28.5056C28.0732 21.749 27.7227 22.1038 27.7227 22.5415V29.3033C27.7227 29.7409 28.0731 30.0958 28.5056 30.0958H31.8459C32.2782 30.0958 32.6288 29.741 32.6288 29.3033C32.6288 28.8656 32.2782 28.511 31.8459 28.511Z" fill="#5DAC46"></path></svg>