<svg xmlns:xlink="http://www.w3.org/1999/xlink" xmlns="http://www.w3.org/2000/svg" width="52" height="52" viewBox="0 0 52 52" fill="none"><path fill-rule="evenodd" clip-rule="evenodd" d="M11.3214 19.4831C11.3214 11.123 18.1304 4.32148 26.4998 4.32148C34.8694 4.32148 41.6783 11.123 41.6784 19.4831C41.6784 22.7964 40.863 25.9543 39.1858 29.1374C37.7029 31.9516 35.6844 34.5471 33.7322 37.0572L33.7304 37.0595C31.2893 40.1984 28.7651 43.4441 27.1246 47.2678C27.0176 47.5173 26.7718 47.6791 26.4999 47.6791C26.228 47.6791 25.9823 47.5173 25.8752 47.2678C24.2346 43.4437 21.71 40.1976 19.2687 37.0585C17.3163 34.5483 15.2971 31.952 13.8141 29.1374C12.1368 25.9543 11.3214 22.7964 11.3214 19.4831ZM32.658 36.2251C36.5979 31.1594 40.3191 26.3746 40.3191 19.4831C40.3191 11.8716 34.1198 5.67929 26.4998 5.67929C18.8799 5.67929 12.6807 11.8717 12.6807 19.4831C12.6807 26.3746 16.4019 31.1593 20.3416 36.2251L20.3428 36.2266C22.5491 39.0635 24.8215 41.9855 26.4998 45.3802C28.1782 41.9852 30.4516 39.0621 32.658 36.2251Z" fill="#0F62F9"></path><path fill-rule="evenodd" clip-rule="evenodd" d="M19.2687 37.0585C17.3163 34.5483 15.2971 31.952 13.8141 29.1374C12.1368 25.9543 11.3214 22.7964 11.3214 19.4831C11.3214 11.123 18.1304 4.32148 26.4998 4.32148C34.8694 4.32148 41.6783 11.123 41.6784 19.4831C41.6784 22.7964 40.863 25.9543 39.1858 29.1374C37.7029 31.9516 35.6844 34.5471 33.7322 37.0572L33.7304 37.0595C31.2893 40.1984 28.7651 43.4441 27.1246 47.2678C27.0176 47.5173 26.7718 47.6791 26.4999 47.6791C26.228 47.6791 25.9823 47.5173 25.8752 47.2678C24.2346 43.4437 21.71 40.1976 19.2687 37.0585ZM33.9951 37.2425C35.9413 34.74 37.9742 32.126 39.4704 29.2867C41.1698 26.0615 42 22.8526 42 19.4828C41.9999 10.9453 35.047 4 26.4999 4C17.9529 4 11 10.9453 11 19.4828C11 22.8526 11.8302 26.0615 13.5296 29.2867C15.026 32.1265 17.0599 34.7416 19.0064 37.2444L19.0148 37.2552C21.4602 40.3995 23.958 43.614 25.5797 47.394C25.7375 47.7617 26.0996 48 26.5 48C26.9004 48 27.2625 47.7617 27.4202 47.394C29.0418 43.6144 31.5393 40.4002 33.9844 37.2562L33.9951 37.2425ZM20.5957 36.0279L20.6057 36.0407C22.6837 38.7127 24.8407 41.4862 26.4999 44.6699C28.1593 41.4858 30.3171 38.7113 32.3953 36.0392L32.4042 36.0277L32.658 36.2251C30.5296 38.9618 28.339 41.7782 26.6802 45.0214C26.6194 45.1403 26.5592 45.2601 26.4998 45.3802C26.4405 45.2601 26.3804 45.1403 26.3196 45.0214C24.661 41.7786 22.4711 38.9632 20.3428 36.2266L20.3416 36.2251C16.4019 31.1593 12.6807 26.3746 12.6807 19.4831C12.6807 11.8717 18.8799 5.67929 26.4998 5.67929C34.1198 5.67929 40.3191 11.8716 40.3191 19.4831C40.3191 26.3746 36.5979 31.1594 32.658 36.2251L32.4042 36.0277C36.3531 30.9504 39.9976 26.2487 39.9976 19.4828C39.9976 12.0486 33.9423 6.00014 26.4999 6.00014C19.0576 6.00014 13.0023 12.0487 13.0023 19.4828C13.0023 26.2487 16.6469 30.9504 20.5957 36.0279Z" fill="#0F62F9"></path><path d="M35.9209 18.3116C35.3734 13.9721 31.8126 10.4982 27.4542 10.0515C25.568 9.85798 23.6953 10.2124 22.0382 11.0762C21.7235 11.2402 21.6014 11.6282 21.7654 11.943C21.9295 12.2577 22.3175 12.3797 22.6322 12.2157C24.0658 11.4684 25.6876 11.1621 27.3232 11.3297C31.0929 11.7161 34.1726 14.7201 34.646 18.4724C34.9715 21.0515 34.1142 23.5751 32.2941 25.3958C30.474 27.2166 27.9509 28.0747 25.3716 27.7503C23.6158 27.5294 21.9398 26.7116 20.6524 25.4472C19.3644 24.1824 18.5176 22.5219 18.268 20.7717C17.96 18.6121 18.4817 16.4639 19.7368 14.7226C19.7386 14.7201 19.7516 14.7112 19.7726 14.7112H21.1404C21.1591 14.7112 21.1761 14.7237 21.1814 14.7418L22.7979 20.1298C23.0551 20.9881 23.8301 21.5647 24.726 21.5647H29.1889C30.2989 21.5647 31.202 20.6616 31.202 19.5515V15.4395C31.202 15.0847 30.9144 14.797 30.5595 14.797H22.5394L22.4121 14.3726C22.2423 13.8066 21.7312 13.4264 21.1403 13.4264H19.7725C19.3435 13.4264 18.9404 13.6301 18.6944 13.9713C17.2439 15.9835 16.6407 18.4631 16.9959 20.9532C17.2852 22.9811 18.264 24.9027 19.7521 26.3641C21.2392 27.8244 23.178 28.7696 25.2113 29.0253C25.6246 29.0773 26.0361 29.1028 26.4449 29.1028C28.9802 29.1028 31.3922 28.1157 33.203 26.3042C35.3057 24.2009 36.2963 21.2876 35.9209 18.3116ZM29.917 16.0821V19.5516C29.917 19.9531 29.5903 20.2798 29.1888 20.2798H24.7259C24.4018 20.2798 24.1215 20.0712 24.0284 19.7608L22.9249 16.0822H29.917V16.0821Z" fill="#5DAC46"></path><path d="M23.0202 22.3357C22.288 22.3357 21.6924 22.9313 21.6924 23.6635C21.6924 24.3957 22.288 24.9914 23.0202 24.9914C23.7524 24.9914 24.3481 24.3957 24.3481 23.6635C24.3481 22.9313 23.7524 22.3357 23.0202 22.3357Z" fill="#5DAC46"></path><path d="M29.8728 22.3357C29.1406 22.3357 28.5449 22.9313 28.5449 23.6635C28.5449 24.3957 29.1406 24.9914 29.8728 24.9914C30.605 24.9914 31.2006 24.3957 31.2006 23.6635C31.2006 22.9313 30.605 22.3357 29.8728 22.3357Z" fill="#5DAC46"></path></svg>