<svg xmlns:xlink="http://www.w3.org/1999/xlink" xmlns="http://www.w3.org/2000/svg" width="52" height="52" viewBox="0 0 40 40" fill="none"><path d="M27.7504 8.9522C28.1046 8.9522 28.3887 8.66025 28.3887 8.30392V5.37987C28.3887 4.0567 27.3315 2.97715 26.028 2.97715H9.9521C8.64856 2.97715 7.59141 4.0567 7.59141 5.37987V34.6206C7.59141 35.9438 8.64856 37.0233 9.9521 37.0233H26.028C27.3315 37.0233 28.3887 35.9438 28.3887 34.6206V25.2635C28.3887 24.9073 28.1047 24.6152 27.7504 24.6152C27.3962 24.6152 27.1121 24.9072 27.1121 25.2635V34.6205C27.1121 35.2321 26.624 35.7267 26.028 35.7267H9.9521C9.35611 35.7267 8.86795 35.2321 8.86795 34.6205V5.37987C8.86795 4.76827 9.35611 4.27371 9.9521 4.27371H26.028C26.624 4.27371 27.1121 4.76827 27.1121 5.37987V8.30392C27.1121 8.66016 27.3961 8.9522 27.7504 8.9522Z" fill="#0F62F9" stroke="#0F62F9" stroke-width="0.2px"></path><path d="M19.1376 5.31553H16.841C16.4868 5.31553 16.2027 5.60749 16.2027 5.96381C16.2027 6.32005 16.4867 6.61209 16.841 6.61209H19.1376C19.4918 6.61209 19.7759 6.32013 19.7759 5.96381C19.7759 5.60749 19.4918 5.31553 19.1376 5.31553Z" fill="#0F62F9" stroke="#0F62F9" stroke-width="0.2px"></path><path d="M14.5452 5.31553H14.551C14.9052 5.31553 15.1892 5.60748 15.1892 5.96381L14.5452 5.31553ZM14.5452 5.31553C14.1903 5.31553 13.9098 5.60819 13.9098 5.96381M14.5452 5.31553L13.9098 5.96381M13.9098 5.96381C13.9098 6.32075 14.1974 6.61209 14.5509 6.61209M13.9098 5.96381L14.5509 6.61209M14.5509 6.61209C14.9051 6.61209 15.1892 6.32014 15.1892 5.96383L14.5509 6.61209Z" fill="#0F62F9" stroke="#0F62F9" stroke-width="0.2px"></path><path d="M19.1376 33.3888H16.841C16.4868 33.3888 16.2027 33.6807 16.2027 34.0371C16.2027 34.3933 16.4867 34.6853 16.841 34.6853H19.1376C19.4918 34.6853 19.7759 34.3934 19.7759 34.0371C19.7759 33.6807 19.4918 33.3888 19.1376 33.3888Z" fill="#0F62F9" stroke="#0F62F9" stroke-width="0.2px"></path><path d="M25.4542 25.2022C25.1 25.2022 24.8159 25.4941 24.8159 25.8505V31.0504H11.1648V8.95437H25.4542C25.8084 8.95437 26.0925 8.66241 26.0925 8.30609C26.0925 7.94985 25.8084 7.65781 25.4542 7.65781H10.5266C10.1724 7.65781 9.88828 7.94977 9.88828 8.30609V31.6986C9.88828 32.0549 10.1723 32.3469 10.5266 32.3469H25.4542C25.8084 32.3469 26.0925 32.055 26.0925 31.6986V25.8504C26.0925 25.4941 25.8084 25.2022 25.4542 25.2022Z" fill="#0F62F9" stroke="#0F62F9" stroke-width="0.2px"></path><path d="M26.0772 10.8618C22.6422 10.8618 19.8477 13.7083 19.8477 17.2071C19.8477 19.0429 20.6108 20.751 21.9558 21.9577C21.2809 23.0832 20.5485 23.7317 20.541 23.7382C20.3798 23.8785 20.3256 24.1085 20.4067 24.308C20.483 24.4952 20.662 24.6156 20.8585 24.6156C20.8714 24.6156 20.8844 24.615 20.8973 24.6141C20.9779 24.6076 22.8149 24.4478 24.4446 23.3315C24.9757 23.4782 25.5237 23.5525 26.0772 23.5525C29.5121 23.5525 32.3067 20.706 32.3067 17.2072C32.3067 13.7083 29.5121 10.8618 26.0772 10.8618ZM26.0772 22.5558C25.5413 22.5558 25.0116 22.4733 24.5028 22.3106C24.3548 22.2633 24.1933 22.2903 24.0679 22.3835C23.4655 22.8313 22.8043 23.1204 22.2367 23.3054C22.4906 22.9643 22.7618 22.5541 23.0161 22.0807C23.1318 21.8652 23.0762 21.596 22.885 21.4464C21.5765 20.4225 20.8261 18.8773 20.8261 17.2071C20.8261 14.2578 23.1818 11.8584 26.0772 11.8584C28.9726 11.8584 31.3282 14.2578 31.3282 17.2071C31.3282 20.1563 28.9726 22.5558 26.0772 22.5558Z" fill="#5DAC46"></path><path d="M29.4778 15.7039C29.3342 15.5577 29.1013 15.5577 28.9577 15.704L25.6868 19.0356L23.9853 17.3024C23.8416 17.1561 23.6088 17.1561 23.4652 17.3024C23.3215 17.4487 23.3215 17.6859 23.4652 17.8322L25.4268 19.8303C25.4986 19.9035 25.5927 19.94 25.6868 19.94C25.7809 19.94 25.8751 19.9035 25.9469 19.8303L29.4777 16.2338C29.6214 16.0874 29.6214 15.8503 29.4778 15.7039Z" fill="#5DAC46" stroke="#5DAC46" stroke-width="0.5px"></path><path d="M17.4167 22.2755H13.3976C13.0435 22.2755 12.7594 22.5674 12.7594 22.9238C12.7594 23.28 13.0434 23.572 13.3976 23.572H17.4167C17.7708 23.572 18.0549 23.2801 18.0549 22.9238C18.0549 22.5674 17.7708 22.2755 17.4167 22.2755Z" fill="#0F62F9" stroke="#0F62F9" stroke-width="0.2px"></path><path d="M15.1201 19.9396H13.3976C13.0435 19.9396 12.7594 20.2315 12.7594 20.5878C12.7594 20.9441 13.0434 21.2361 13.3976 21.2361H15.1201C15.4743 21.2361 15.7583 20.9442 15.7583 20.5878C15.7583 20.2315 15.4743 19.9396 15.1201 19.9396Z" fill="#0F62F9" stroke="#0F62F9" stroke-width="0.2px"></path><path d="M17.4167 24.6183H13.3976C13.0435 24.6183 12.7594 24.9102 12.7594 25.2665C12.7594 25.6228 13.0434 25.9148 13.3976 25.9148H17.4167C17.7708 25.9148 18.0549 25.6229 18.0549 25.2665C18.0549 24.9102 17.7708 24.6183 17.4167 24.6183Z" fill="#0F62F9" stroke="#0F62F9" stroke-width="0.2px"></path><path d="M14.5459 28.7096H13.3976C13.0435 28.7096 12.7594 29.0015 12.7594 29.3579C12.7594 29.7141 13.0434 30.0061 13.3976 30.0061H14.5459C14.9001 30.0061 15.1842 29.7142 15.1842 29.3579C15.1842 29.0015 14.9001 28.7096 14.5459 28.7096Z" fill="#0F62F9" stroke="#0F62F9" stroke-width="0.2px"></path><path d="M22.583 28.7096H21.4348C21.0806 28.7096 20.7965 29.0015 20.7965 29.3579C20.7965 29.7141 21.0805 30.0061 21.4348 30.0061H22.583C22.9372 30.0061 23.2213 29.7142 23.2213 29.3579C23.2213 29.0015 22.9372 28.7096 22.583 28.7096Z" fill="#0F62F9" stroke="#0F62F9" stroke-width="0.2px"></path><path d="M18.5654 28.7096H17.4172C17.063 28.7096 16.7789 29.0015 16.7789 29.3579C16.7789 29.7141 17.0629 30.0061 17.4172 30.0061H18.5654C18.9196 30.0061 19.2037 29.7142 19.2037 29.3579C19.2037 29.0015 18.9197 28.7096 18.5654 28.7096Z" fill="#0F62F9" stroke="#0F62F9" stroke-width="0.2px"></path></svg>